# xmcd
#
# Track frame offsets:
#	150
#	19872
#	38034
#	52229
#	69376
#	91035
#	105863
#	120099
#	137826
#	158731
#
# Disc length: 2345
#
# Revision: 1
# Processed by: cddbd v1.5.1PL0 Copyright (c) Steve Scherf et al.
# Submitted via: dBpowerAMP V4.0
# Normalized: r0:TRMNUM
#
DISCID=7209270a
DTITLE=Cristina del Valle - Aountes Generales del Mundo
DYEAR=2001
DGENRE=Latin
TTITLE0=El secreto de Orion
TTITLE1=Renacimiento
TTITLE2=Nada de nada
TTITLE3=Todo mentira
TTITLE4=El próximo eclipse
TTITLE5=No te conozco tan bien
TTITLE6=Media mentira por media verdad
TTITLE7=Oye mar
TTITLE8=Veneno en la miel
TTITLE9=Duérmete fin del alma
EXTD=
EXTT0=
EXTT1=
EXTT2=
EXTT3=
EXTT4=
EXTT5=
EXTT6=
EXTT7=
EXTT8=
EXTT9=
PLAYORDER=
